<svg xmlns="http://www.w3.org/2000/svg" xmlns:xlink="http://www.w3.org/1999/xlink" version="1.1" x="0px" y="0px" viewBox="0 0 100 125" style="enable-background:new 0 0 100 100;" xml:space="preserve"><g><path d="M48.1142578,45.0297852h-7.7216797l3.0014648-7.8041992c0.1777344-0.4614258,0.1162109-0.9804688-0.1635742-1.3876953   s-0.7421875-0.6508789-1.2363281-0.6508789H34.359375c-0.6069336,0-1.1538086,0.3657227-1.3862305,0.9262695l-6.0571289,14.6381836   c-0.1914063,0.4628906-0.1391602,0.9907227,0.1391602,1.4072266s0.7460938,0.6665039,1.2470703,0.6665039h5.4384766   l-2.1118164,10.1831055c-0.1376953,0.6645508,0.1875,1.3383789,0.7929688,1.644043   c0.2148438,0.1083984,0.4462891,0.1606445,0.675293,0.1606445c0.4165039,0,0.8266602-0.1733398,1.1181641-0.5   l15.0166016-16.7832031c0.3945313-0.440918,0.4931641-1.0722656,0.2514648-1.6123047   C49.2421875,45.3774414,48.7060547,45.0297852,48.1142578,45.0297852z M35.6987305,58.15625l1.3535156-6.5263672   c0.0917969-0.4418945-0.0205078-0.9013672-0.3051758-1.2514648c-0.2851563-0.3500977-0.7124023-0.5532227-1.1635742-0.5532227   h-5.0371094l4.8154297-11.6381836h4.4482422l-3.0014648,7.8041992c-0.1777344,0.4614258-0.1162109,0.9804688,0.1635742,1.3876953   s0.7421875,0.6508789,1.2363281,0.6508789h6.5507813L35.6987305,58.15625z"/><path d="M14.7915039,69.5H61.625h14.5c0.8286133,0,1.5-0.6713867,1.5-1.5V58h7.5834961c0.8286133,0,1.5-0.6713867,1.5-1.5v-13   c0-0.8286133-0.6713867-1.5-1.5-1.5H77.625V32c0-0.8286133-0.6713867-1.5-1.5-1.5h-14.5H14.7915039   c-0.8286133,0-1.5,0.6713867-1.5,1.5v36C13.2915039,68.8286133,13.9628906,69.5,14.7915039,69.5z M83.7084961,45v10H77.625V45   H83.7084961z M74.625,43.5v13v10h-11.5v-33h11.5V43.5z M16.2915039,33.5H60.125v33H16.2915039V33.5z"/></g><text x="0" y="115" fill="#000000" font-size="5px" font-weight="bold" font-family="'Helvetica Neue', Helvetica, Arial-Unicode, Arial, Sans-serif">Created by Rudez Studio</text><text x="0" y="120" fill="#000000" font-size="5px" font-weight="bold" font-family="'Helvetica Neue', Helvetica, Arial-Unicode, Arial, Sans-serif">from the Noun Project</text></svg>