<svg xmlns="http://www.w3.org/2000/svg" xmlns:xlink="http://www.w3.org/1999/xlink" version="1.1" x="0px" y="0px" viewBox="0 0 64 80" style="enable-background:new 0 0 64 64;" xml:space="preserve"><g><path d="M26,27c2.206,0,4-1.794,4-4c0-0.74-0.215-1.424-0.567-2.019l5.274-5.274l-1.414-1.414l-5.274,5.274   C27.424,19.215,26.74,19,26,19c-2.206,0-4,1.794-4,4S23.794,27,26,27z M26,21c1.103,0,2,0.897,2,2s-0.897,2-2,2s-2-0.897-2-2   S24.897,21,26,21z"/><rect x="25" y="5" width="2" height="4"/><rect x="18.877" y="6.218" transform="matrix(0.9238 -0.3828 0.3828 0.9238 -1.6319 8.2341)" width="2" height="4"/><rect x="13.687" y="9.686" transform="matrix(0.7071 -0.7071 0.7071 0.7071 -3.9619 13.8078)" width="2" height="4"/><rect x="10.218" y="14.877" transform="matrix(0.3827 -0.9239 0.9239 0.3827 -8.6677 20.7819)" width="2" height="4"/><rect x="8" y="22" width="4" height="2"/><rect x="9.218" y="28.123" transform="matrix(0.9238 -0.3828 0.3828 0.9238 -10.2941 6.5127)" width="4" height="2"/><rect x="40" y="22" width="4" height="2"/><rect x="38.782" y="15.877" transform="matrix(0.9239 -0.3827 0.3827 0.9239 -3.3543 16.8925)" width="4" height="2"/><rect x="35.314" y="10.686" transform="matrix(0.7071 -0.7071 0.7071 0.7071 2.6654 29.8074)" width="4" height="2"/><rect x="30.123" y="7.218" transform="matrix(0.3828 -0.9238 0.9238 0.3828 12.2339 34.7482)" width="4" height="2"/><path d="M60,27H47.636C47.877,25.687,48,24.346,48,23c0-12.131-9.869-22-22-22S4,10.869,4,23c0,10.051,6.777,18.543,16,21.161V48   h-5v-4h-2v4h-2v-4H9v4H1v2h8v7H1v2h8v4h2v-4h2v4h2v-4h20v1c0,1.654,1.346,3,3,3h22c1.654,0,3-1.346,3-3V30   C63,28.346,61.654,27,60,27z M6,23C6,11.972,14.972,3,26,3s20,8.972,20,20c0,1.35-0.142,2.69-0.408,4H38c-1.654,0-3,1.346-3,3v1H16   v2h19v2h-2v2h2v3.855C32.226,42.254,29.13,43,26,43C14.972,43,6,34.028,6,23z M32,44.157c1.025-0.29,2.029-0.65,3-1.085V48h-3   V44.157z M11,57v-7h2v7H11z M15,57v-7h7v-5.371C23.298,44.868,24.634,45,26,45c1.345,0,2.684-0.126,4-0.369V50h5v7H15z M61,60   c0,0.551-0.448,1-1,1H38c-0.552,0-1-0.449-1-1V30c0-0.551,0.448-1,1-1h22c0.552,0,1,0.449,1,1V60z"/><path d="M39,45h20V31H39V45z M41,33h16v10H41V33z"/><path d="M39,57h8v-8h-8V57z M41,51h4v4h-4V51z"/><path d="M51,57h8v-8h-8V57z M53,51h4v4h-4V51z"/><rect x="53" y="39" width="2" height="2"/><rect x="43" y="39" width="8" height="2"/><rect x="16" y="35" width="15" height="2"/></g></svg>
